<svg width="172" height="46" viewBox="0 0 172 46" fill="none" xmlns="http://www.w3.org/2000/svg">
<g filter="url(#filter0_d_7105_439)">
<path d="M40.0405 21.3266C40.0405 20.6589 39.9692 19.999 39.8243 19.3469C39.8176 19.2728 39.817 19.1981 39.803 19.1251C39.3672 16.8258 38.4691 14.722 37.119 12.8125C36.3614 11.742 35.501 10.7626 34.485 9.92743C34.4182 9.86341 34.3547 9.79545 34.2839 9.73704C31.4719 7.41867 28.2488 6.1657 24.6044 6.01462C23.5862 5.9725 22.5702 6.01743 21.5655 6.21175C21.4818 6.21849 21.397 6.21849 21.315 6.23366C19.1696 6.63858 17.154 7.38105 15.3326 8.59976C11.4322 11.209 9.01889 14.8197 8.22701 19.448C7.69347 22.5667 8.10345 25.5921 9.42494 28.4879C12.4217 35.0543 19.6161 39.3889 27.4086 37.5917C33.656 36.1506 37.6756 32.1811 39.5306 26.0454C39.9945 24.511 40.1197 22.9267 40.0405 21.3266ZM38.3596 25.7084C36.6618 31.1741 33.1444 34.9077 27.5563 36.268C21.329 37.7832 16.1779 35.7496 12.2342 30.7377C10.1904 28.1408 9.15761 25.1406 9.21827 21.8225C9.29409 17.6974 10.9043 14.2132 13.8572 11.3624C15.8577 9.43096 18.2368 8.15945 20.9623 7.55852C20.9977 7.55065 21.0303 7.53156 21.0645 7.51752C21.0802 7.53212 21.0965 7.54335 21.1134 7.55178C21.1285 7.53268 21.1448 7.5164 21.1622 7.50404C21.8328 7.41306 22.5006 7.29624 23.1779 7.25974C27.0301 7.05531 30.4312 8.21224 33.4157 10.6396C34.3777 11.4219 35.2331 12.316 35.952 13.3134C37.4335 15.3712 38.4495 17.6368 38.7606 20.1849C38.8729 21.1014 38.8875 22.0186 38.8606 22.9385H38.8589C38.8589 22.9385 38.8538 22.9413 38.851 22.9435C38.8538 22.9475 38.8566 22.9514 38.86 22.9548C38.7584 23.8848 38.6382 24.8126 38.3596 25.7084Z" fill="white"/>
<path d="M36.4877 21.8248C32.4042 17.7733 28.3184 13.724 24.2388 9.66852C24.0815 9.51239 24.004 9.48544 23.8299 9.65954C20.8461 12.6412 17.8543 15.615 14.8637 18.5904C13.7837 19.6648 12.702 20.7381 11.6209 21.8119C11.4923 21.8933 11.3867 21.9781 11.5748 22.1084C11.7405 22.2662 11.9062 22.4235 12.0719 22.5813C12.1471 22.6633 12.219 22.7487 12.2976 22.8273C16.129 26.6384 19.9632 30.4479 23.7895 34.2652C23.9782 34.4534 24.0692 34.491 24.2809 34.2787C26.4724 32.0805 28.679 29.897 30.8788 27.7066C31.7859 26.8036 32.6856 25.8937 33.5887 24.9867C34.576 24.0179 35.5616 23.0474 36.5523 22.0826C36.6978 21.9405 36.5557 21.8927 36.4877 21.8248ZM24.6437 31.9823V29.4022C24.6426 28.4761 24.6426 27.5494 24.6415 26.6233V26.6025C24.6409 26.1234 24.6409 25.6449 24.6398 25.1664V25.1462C24.6392 24.6144 24.6387 24.0825 24.6375 23.5507V23.545C24.6375 23.3311 24.637 23.1176 24.6364 22.9037V22.8806C24.6364 22.7397 24.6426 22.6549 24.8465 22.6554C26.8419 22.6616 28.8373 22.6627 30.8322 22.6633H30.8491C31.8403 22.6633 32.8316 22.6633 33.8228 22.6639C33.8577 22.6639 33.8925 22.67 33.9902 22.6785C30.8895 25.8089 27.7995 28.8799 24.6437 31.9823ZM24.646 12.0582C24.7707 12.0958 24.8364 12.1874 24.9116 12.261C25.9343 13.2629 26.9554 14.2671 27.9775 15.2696C28.0438 15.3347 28.1157 15.3937 28.1847 15.4555C28.2179 15.488 28.251 15.52 28.2842 15.5521C28.4038 15.7026 28.538 15.839 28.6924 15.9542C28.711 16.0036 28.7447 16.0379 28.7947 16.0553C28.8199 16.112 28.8604 16.153 28.9177 16.1766C29.3759 16.6416 29.8297 17.1106 30.2925 17.5711C31.2916 18.564 32.2952 19.553 33.2966 20.5432C33.3185 20.5993 33.3573 20.6392 33.4134 20.6611C33.432 20.7139 33.4673 20.7499 33.5201 20.7684C33.542 20.8251 33.5808 20.8644 33.6375 20.8863C33.6566 20.9386 33.692 20.9739 33.7442 20.993C33.806 21.0711 33.8678 21.1486 33.9284 21.225C33.8689 21.2997 33.7981 21.2677 33.7386 21.2677C30.8098 21.2682 27.8803 21.2643 24.9515 21.2705C24.7201 21.271 24.6359 21.2385 24.637 20.9734C24.6415 19.4896 24.642 18.0052 24.6409 16.5214V16.5057C24.6448 16.3018 24.6493 16.1002 24.6595 15.8963C24.6684 15.7059 24.6538 15.5133 24.6404 15.3201V15.3049C24.6392 14.2744 24.6376 13.2444 24.637 12.2138C24.637 12.1689 24.642 12.1234 24.646 12.0582ZM23.3059 12.1621C23.3408 12.2267 23.3531 12.3008 23.3498 12.3896C23.3481 12.4328 23.3453 12.4912 23.3593 12.5362V13.1601C23.3172 13.2286 23.3492 13.3269 23.3492 13.4011C23.343 15.9463 23.3441 18.4916 23.3441 21.0368C23.3441 21.0784 23.3464 21.1194 23.3514 21.1587C23.334 21.2306 23.2835 21.2733 23.138 21.2727C20.2109 21.2637 17.2837 21.2665 14.356 21.2665H14.1431C17.2006 18.1962 20.2142 15.1853 23.3059 12.1621ZM23.3604 31.7801C23.3604 31.8048 23.352 31.8289 23.3391 31.9036C20.2255 28.8546 17.177 25.7915 14.0903 22.661H15.7168C18.1767 22.661 20.6371 22.6622 23.0976 22.6594C23.2627 22.6594 23.3672 22.6526 23.3666 22.8834C23.3576 25.8488 23.361 28.8142 23.3604 31.7801Z" fill="white"/>
<path d="M19.5802 31.5403C18.9725 31.5425 18.3643 31.5464 17.7566 31.533C15.9044 31.4908 14.5744 30.1469 14.5514 28.2975C14.5441 27.6898 14.5492 27.0821 14.5469 26.4739C14.5469 26.3829 14.5649 26.2863 14.4874 26.2105C14.1291 25.8612 13.7724 25.5113 13.3731 25.1204C13.4226 26.3037 13.3451 27.4258 13.4203 28.5474C13.577 30.8731 15.3264 32.5939 17.6538 32.6663C18.7096 32.6989 19.7672 32.6759 20.8241 32.677C20.8657 32.677 20.9191 32.6927 20.946 32.6242C20.6102 32.3069 20.2693 31.9896 19.9345 31.6655C19.8318 31.5655 19.7183 31.5397 19.5802 31.5403Z" fill="white"/>
<path d="M28.5155 12.4643C29.1052 12.4575 29.6944 12.4547 30.2835 12.4665C31.9673 12.4991 33.3612 13.7616 33.5443 15.4369C33.6173 16.1069 33.5578 16.7831 33.5679 17.456C33.569 17.5481 33.537 17.6497 33.6004 17.7289C33.9329 18.1389 34.3204 18.4938 34.7186 18.8521C34.704 17.616 34.8304 16.3911 34.6456 15.1763C34.3474 13.2118 32.8215 11.6454 30.9434 11.3978C29.6899 11.2321 28.4268 11.373 27.1682 11.3202C27.4911 11.6623 27.7978 11.9779 28.0932 12.3031C28.2123 12.4339 28.3465 12.4665 28.5155 12.4643Z" fill="white"/>
<path d="M14.4003 17.8261C14.5132 17.7098 14.5486 17.5834 14.5458 17.4239C14.5362 16.891 14.5357 16.358 14.5396 15.825C14.5548 13.9133 15.9493 12.5013 17.8627 12.466C18.4423 12.4558 19.0219 12.4676 19.6015 12.4671C19.6846 12.4671 19.8003 12.4873 19.8458 12.4429C20.2109 12.0807 20.563 11.7061 20.9112 11.3422C19.8087 11.3422 18.695 11.295 17.5864 11.3523C15.3916 11.4663 13.6584 13.1579 13.4304 15.3459C13.3102 16.5023 13.4091 17.6626 13.4254 18.8555C13.75 18.5118 14.0712 18.1653 14.4003 17.8261Z" fill="white"/>
<path d="M34.7119 27.0232C34.7214 26.4031 34.7141 25.7831 34.7141 25.0929C34.3581 25.4596 34.0233 25.75 33.7425 26.0948C33.5802 26.1925 33.5415 26.3397 33.5409 26.5228C33.5398 27.2804 33.6128 28.0436 33.51 28.7945C33.2977 30.3463 32.0375 31.465 30.4554 31.5302C29.7921 31.5577 29.1271 31.5358 28.4627 31.5369C28.3617 31.5375 28.26 31.5195 28.1752 31.6077C27.8354 31.9598 27.4911 32.308 27.1165 32.6905C28.3869 32.659 29.6191 32.7388 30.8496 32.6365C31.0164 32.6231 31.1832 32.5882 31.3467 32.5512C33.1826 32.1328 34.6344 30.4153 34.6563 28.6389C34.667 28.6131 34.6782 28.5884 34.6782 28.5592V28.512C34.754 28.0178 34.7046 27.5191 34.7119 27.0232Z" fill="white"/>
<path d="M154.876 29.8537V13.4634H158.621V16.1951H158.792C159.091 15.249 159.603 14.5198 160.328 14.0076C161.061 13.4883 161.897 13.2287 162.836 13.2287C163.049 13.2287 163.288 13.2394 163.551 13.2607C163.821 13.2749 164.045 13.2998 164.223 13.3354V16.8887C164.06 16.8318 163.8 16.782 163.444 16.7394C163.096 16.6896 162.758 16.6647 162.431 16.6647C161.726 16.6647 161.093 16.8176 160.531 17.1235C159.976 17.4223 159.539 17.8384 159.219 18.372C158.898 18.9055 158.738 19.5209 158.738 20.218V29.8537H154.876Z" fill="white"/>
<path d="M144.921 30.1738C143.277 30.1738 141.858 29.8323 140.663 29.1494C139.475 28.4594 138.561 27.4848 137.921 26.2256C137.28 24.9594 136.96 23.469 136.96 21.7546C136.96 20.0686 137.28 18.5889 137.921 17.3156C138.568 16.0351 139.471 15.0392 140.631 14.3278C141.79 13.6093 143.153 13.25 144.718 13.25C145.728 13.25 146.681 13.4136 147.578 13.7409C148.481 14.061 149.278 14.559 149.968 15.2348C150.665 15.9106 151.213 16.7714 151.611 17.8171C152.01 18.8557 152.209 20.0935 152.209 21.5305V22.715H138.774V20.1113H148.506C148.499 19.3715 148.339 18.7134 148.026 18.1372C147.713 17.5539 147.275 17.095 146.713 16.7607C146.158 16.4263 145.511 16.2592 144.771 16.2592C143.982 16.2592 143.288 16.4512 142.69 16.8354C142.093 17.2124 141.627 17.7104 141.293 18.3293C140.965 18.9411 140.798 19.6133 140.791 20.3461V22.6189C140.791 23.5722 140.965 24.3903 141.314 25.0732C141.662 25.749 142.15 26.2683 142.776 26.6311C143.402 26.9868 144.135 27.1647 144.974 27.1647C145.536 27.1647 146.045 27.0864 146.5 26.9299C146.955 26.7663 147.35 26.528 147.684 26.215C148.019 25.902 148.271 25.5143 148.442 25.0519L152.049 25.4573C151.821 26.4106 151.387 27.2429 150.747 27.9543C150.114 28.6586 149.303 29.2063 148.314 29.5976C147.325 29.9817 146.194 30.1738 144.921 30.1738Z" fill="white"/>
<path d="M131.93 30.0884C131.282 30.0884 130.727 29.8608 130.265 29.4055C129.803 28.9502 129.575 28.3954 129.582 27.7409C129.575 27.1006 129.803 26.5529 130.265 26.0976C130.727 25.6423 131.282 25.4147 131.93 25.4147C132.556 25.4147 133.1 25.6423 133.562 26.0976C134.032 26.5529 134.27 27.1006 134.277 27.7409C134.27 28.1748 134.156 28.5696 133.936 28.9253C133.722 29.281 133.438 29.5656 133.082 29.779C132.734 29.9853 132.349 30.0884 131.93 30.0884Z" fill="white"/>
<path d="M115.703 20.25V29.8537H111.84V13.4634H115.532V16.2485H115.724C116.101 15.3308 116.702 14.6017 117.528 14.061C118.36 13.5204 119.388 13.25 120.612 13.25C121.743 13.25 122.728 13.4919 123.567 13.9756C124.414 14.4594 125.068 15.1601 125.531 16.0778C126 16.9955 126.231 18.1088 126.224 19.4177V29.8537H122.361V20.0153C122.361 18.9197 122.077 18.0625 121.508 17.4436C120.946 16.8247 120.167 16.5153 119.171 16.5153C118.495 16.5153 117.894 16.6647 117.368 16.9634C116.848 17.2551 116.439 17.6784 116.14 18.2333C115.849 18.7881 115.703 19.4604 115.703 20.25Z" fill="white"/>
<path d="M97.993 20.25V29.8537H94.1302V13.4634H97.8222V16.2485H98.0143C98.3913 15.3308 98.9925 14.6017 99.8177 14.061C100.65 13.5204 101.678 13.25 102.901 13.25C104.033 13.25 105.018 13.4919 105.857 13.9756C106.704 14.4594 107.358 15.1601 107.821 16.0778C108.29 16.9955 108.521 18.1088 108.514 19.4177V29.8537H104.651V20.0153C104.651 18.9197 104.367 18.0625 103.798 17.4436C103.236 16.8247 102.457 16.5153 101.461 16.5153C100.785 16.5153 100.184 16.6647 99.6576 16.9634C99.1383 17.2551 98.7292 17.6784 98.4305 18.2333C98.1388 18.7881 97.993 19.4604 97.993 20.25Z" fill="white"/>
<path d="M82.193 30.1845C81.1544 30.1845 80.2189 29.9995 79.3866 29.6296C78.5614 29.2526 77.9069 28.6977 77.4232 27.965C76.9466 27.2322 76.7083 26.3288 76.7083 25.2546C76.7083 24.3298 76.879 23.5651 77.2205 22.9604C77.5619 22.3557 78.0279 21.872 78.6183 21.5092C79.2088 21.1464 79.8739 20.8725 80.6137 20.6875C81.3607 20.4955 82.1326 20.3567 82.9293 20.2714C83.8897 20.1718 84.6686 20.0829 85.2662 20.0046C85.8638 19.9192 86.2977 19.7912 86.568 19.6205C86.8455 19.4426 86.9842 19.1687 86.9842 18.7988V18.7348C86.9842 17.9309 86.7459 17.3085 86.2692 16.8674C85.7926 16.4263 85.1061 16.2058 84.2098 16.2058C83.2636 16.2058 82.5131 16.4121 81.9583 16.8247C81.4105 17.2373 81.0406 17.7246 80.8485 18.2866L77.2418 17.7744C77.5264 16.7785 77.9959 15.9462 78.6503 15.2775C79.3048 14.6017 80.1051 14.0966 81.0512 13.7622C81.9974 13.4208 83.0431 13.25 84.1884 13.25C84.9781 13.25 85.7642 13.3425 86.5467 13.5275C87.3292 13.7124 88.0441 14.0183 88.6915 14.4451C89.3388 14.8649 89.8582 15.4375 90.2494 16.1631C90.6478 16.8887 90.847 17.7958 90.847 18.8842V29.8537H87.1336V27.6022H87.0055C86.7708 28.0574 86.44 28.4843 86.0131 28.8826C85.5934 29.2739 85.0634 29.5905 84.4232 29.8323C83.7901 30.0671 83.0467 30.1845 82.193 30.1845ZM83.1961 27.3461C83.9715 27.3461 84.6437 27.1931 85.2128 26.8872C85.7819 26.5742 86.2194 26.1616 86.5253 25.6494C86.8383 25.1372 86.9948 24.5788 86.9948 23.9741V22.0427C86.8739 22.1423 86.6676 22.2348 86.3759 22.3201C86.0914 22.4055 85.7713 22.4802 85.4156 22.5442C85.0599 22.6083 84.7078 22.6652 84.3592 22.715C84.0106 22.7648 83.7083 22.8074 83.4522 22.843C82.8759 22.9213 82.3602 23.0493 81.9049 23.2272C81.4496 23.405 81.0904 23.654 80.8272 23.9741C80.5639 24.2871 80.4323 24.6926 80.4323 25.1906C80.4323 25.902 80.692 26.4391 81.2113 26.8019C81.7306 27.1647 82.3922 27.3461 83.1961 27.3461Z" fill="white"/>
<path d="M74.1053 8.00003V29.8537H70.2425V8.00003H74.1053Z" fill="white"/>
<path d="M52.063 36V13.4634H55.8618V16.1738H56.0859C56.2851 15.7754 56.5661 15.3522 56.9289 14.904C57.2917 14.4487 57.7825 14.061 58.4015 13.7409C59.0204 13.4136 59.81 13.25 60.7704 13.25C62.0366 13.25 63.1784 13.5737 64.1957 14.2211C65.22 14.8613 66.031 15.811 66.6286 17.0701C67.2333 18.3222 67.5356 19.8588 67.5356 21.6799C67.5356 23.4797 67.2404 25.0092 66.6499 26.2683C66.0595 27.5275 65.2556 28.4878 64.2383 29.1494C63.2211 29.811 62.0686 30.1418 60.781 30.1418C59.842 30.1418 59.063 29.9853 58.4441 29.6723C57.8252 29.3593 57.3273 28.9822 56.9502 28.5412C56.5803 28.093 56.2922 27.6697 56.0859 27.2714H55.9258V36H52.063ZM55.8511 21.6586C55.8511 22.7185 56.0005 23.6469 56.2993 24.4436C56.6052 25.2404 57.0427 25.8628 57.6118 26.311C58.188 26.7521 58.8852 26.9726 59.7033 26.9726C60.5569 26.9726 61.2719 26.7449 61.8481 26.2897C62.4243 25.8273 62.8583 25.1977 63.1499 24.4009C63.4487 23.5971 63.5981 22.683 63.5981 21.6586C63.5981 20.6413 63.4523 19.7378 63.1606 18.9482C62.8689 18.1586 62.435 17.5397 61.8588 17.0915C61.2825 16.6433 60.564 16.4192 59.7033 16.4192C58.8781 16.4192 58.1774 16.6362 57.6011 17.0701C57.0249 17.5041 56.5874 18.1123 56.2886 18.8948C55.997 19.6774 55.8511 20.5986 55.8511 21.6586Z" fill="white"/>
</g>
<defs>
<filter id="filter0_d_7105_439" x="-3.99988" y="0" width="180" height="52" filterUnits="userSpaceOnUse" color-interpolation-filters="sRGB">
<feFlood flood-opacity="0" result="BackgroundImageFix"/>
<feColorMatrix in="SourceAlpha" type="matrix" values="0 0 0 0 0 0 0 0 0 0 0 0 0 0 0 0 0 0 127 0" result="hardAlpha"/>
<feOffset dy="4"/>
<feGaussianBlur stdDeviation="2"/>
<feComposite in2="hardAlpha" operator="out"/>
<feColorMatrix type="matrix" values="0 0 0 0 0 0 0 0 0 0 0 0 0 0 0 0 0 0 0.25 0"/>
<feBlend mode="normal" in2="BackgroundImageFix" result="effect1_dropShadow_7105_439"/>
<feBlend mode="normal" in="SourceGraphic" in2="effect1_dropShadow_7105_439" result="shape"/>
</filter>
</defs>
</svg>
